<svg width="64" height="64" viewBox="0 0 64 64" fill="none" xmlns="http://www.w3.org/2000/svg">
<rect width="64" height="64" rx="10" fill="url(#paint0_linear_267_5553)"/>
<path fill-rule="evenodd" clip-rule="evenodd" d="M36.0013 32H33.3346V29.3333C33.3346 28.596 32.7373 28 32.0013 28C31.2653 28 30.668 28.596 30.668 29.3333V33.3333C30.668 34.0707 31.2653 34.6667 32.0013 34.6667H36.0013C36.7373 34.6667 37.3346 34.0707 37.3346 33.3333C37.3346 32.596 36.7373 32 36.0013 32ZM32 42.3333C27.0373 42.3333 23 38.296 23 33.3333C23 28.3706 27.0373 24.3333 32 24.3333C36.9627 24.3333 41 28.3706 41 33.3333C41 38.296 36.9627 42.3333 32 42.3333M33.3173 21.4106C33.32 21.3826 33.3333 21.3613 33.3333 21.3333V20H34.6667C35.4027 20 36 19.404 36 18.6666C36 17.9293 35.4027 17.3333 34.6667 17.3333H29.3333C28.5973 17.3333 28 17.9293 28 18.6666C28 19.404 28.5973 20 29.3333 20H30.6667V21.3333C30.6667 21.3613 30.68 21.3826 30.6827 21.4106C24.684 22.0693 20 27.1626 20 33.3333C20 39.9506 25.384 45.3333 32 45.3333C38.616 45.3333 44 39.9506 44 33.3333C44 27.1626 39.316 22.0693 33.3173 21.4106" fill="#03133D"/>
<mask id="mask0_267_5553" style="mask-type:luminance" maskUnits="userSpaceOnUse" x="20" y="17" width="24" height="29">
<path fill-rule="evenodd" clip-rule="evenodd" d="M36.0013 32H33.3346V29.3333C33.3346 28.596 32.7373 28 32.0013 28C31.2653 28 30.668 28.596 30.668 29.3333V33.3333C30.668 34.0707 31.2653 34.6667 32.0013 34.6667H36.0013C36.7373 34.6667 37.3346 34.0707 37.3346 33.3333C37.3346 32.596 36.7373 32 36.0013 32ZM32 42.3333C27.0373 42.3333 23 38.296 23 33.3333C23 28.3706 27.0373 24.3333 32 24.3333C36.9627 24.3333 41 28.3706 41 33.3333C41 38.296 36.9627 42.3333 32 42.3333M33.3173 21.4106C33.32 21.3826 33.3333 21.3613 33.3333 21.3333V20H34.6667C35.4027 20 36 19.404 36 18.6666C36 17.9293 35.4027 17.3333 34.6667 17.3333H29.3333C28.5973 17.3333 28 17.9293 28 18.6666C28 19.404 28.5973 20 29.3333 20H30.6667V21.3333C30.6667 21.3613 30.68 21.3826 30.6827 21.4106C24.684 22.0693 20 27.1626 20 33.3333C20 39.9506 25.384 45.3333 32 45.3333C38.616 45.3333 44 39.9506 44 33.3333C44 27.1626 39.316 22.0693 33.3173 21.4106" fill="white"/>
</mask>
<g mask="url(#mask0_267_5553)">
<rect x="16" y="16" width="32" height="32" fill="white"/>
</g>
<defs>
<linearGradient id="paint0_linear_267_5553" x1="-0.415645" y1="71.8441" x2="70.9528" y2="16.8239" gradientUnits="userSpaceOnUse">
<stop stop-color="#219EBC"/>
<stop offset="1" stop-color="#023047"/>
</linearGradient>
</defs>
</svg>
