<svg width="16" height="18" viewBox="0 0 16 18" fill="none" xmlns="http://www.w3.org/2000/svg">
<path d="M7.62906 0.094922C7.55875 0.161719 7.42164 0.41836 7.22125 0.861328C7.05601 1.22695 6.90484 1.54336 6.89078 1.56094C6.8732 1.57852 6.53922 1.62773 6.14547 1.67344C5.75172 1.71914 5.38961 1.76484 5.34039 1.77539C5.11891 1.82461 4.97125 2.13398 5.06266 2.35547C5.08726 2.41523 5.36148 2.69648 5.68141 2.9918C5.99781 3.28359 6.25797 3.52617 6.25797 3.52969C6.25797 3.5332 6.19469 3.85313 6.11734 4.23633C5.94156 5.11875 5.93805 5.20664 6.09625 5.36484C6.1982 5.4668 6.24039 5.48438 6.38453 5.48438C6.5357 5.48438 6.63062 5.44219 7.20719 5.11523C7.5693 4.91133 7.8857 4.74609 7.91031 4.74609C7.93492 4.74609 8.25133 4.91133 8.61344 5.11523C9.19351 5.44219 9.28844 5.48438 9.43609 5.48438C9.58023 5.48438 9.62242 5.4668 9.72437 5.36484C9.88258 5.20664 9.87906 5.11875 9.70328 4.23633C9.62594 3.85313 9.56265 3.5332 9.56265 3.52969C9.56265 3.52617 9.82281 3.28359 10.1392 2.9918C10.4591 2.69648 10.7334 2.41523 10.758 2.35547C10.8494 2.13398 10.7017 1.82461 10.4802 1.77539C10.4275 1.76484 10.0654 1.71914 9.67164 1.67344C9.27789 1.62773 8.94391 1.575 8.92984 1.55742C8.91578 1.54336 8.76461 1.22695 8.59937 0.861328C8.24781 0.0843751 8.18101 1.45286e-07 7.91031 1.45286e-07C7.76969 1.45286e-07 7.71695 0.0175783 7.62906 0.094922ZM8.10367 1.90547C8.32164 2.38711 8.34625 2.40469 8.87711 2.46445C9.09156 2.48555 9.27437 2.51367 9.28844 2.52773C9.29898 2.53828 9.17594 2.66836 9.01773 2.8125C8.85601 2.95664 8.70484 3.11133 8.68726 3.15703C8.63101 3.27656 8.64156 3.49453 8.71891 3.84609C8.75758 4.01836 8.7857 4.16602 8.77867 4.16953C8.77164 4.17656 8.60992 4.09219 8.41656 3.9832C7.94547 3.7125 7.87164 3.7125 7.40406 3.9832C7.21422 4.0957 7.0525 4.18008 7.04547 4.17656C7.04195 4.16953 7.06656 4.02188 7.10172 3.84961C7.17906 3.48398 7.18609 3.24844 7.12633 3.14297C7.10172 3.10078 6.96109 2.95664 6.81344 2.81602C6.66226 2.67891 6.53922 2.55586 6.53922 2.53828C6.53922 2.52422 6.715 2.49258 6.93297 2.46797C7.47437 2.40469 7.49898 2.38711 7.71695 1.90547C7.81187 1.69102 7.89976 1.51523 7.91031 1.51523C7.92086 1.51523 8.00875 1.69102 8.10367 1.90547Z" fill="#292D32"/>
<path d="M2.22674 1.95123C2.08612 2.011 2.05799 2.05319 1.77674 2.67897C1.57284 3.12897 1.52713 3.19928 1.44627 3.21334C1.39705 3.22389 1.12635 3.25905 0.848616 3.28717C0.272054 3.35397 0.215804 3.36803 0.110335 3.50162C-0.0935711 3.76178 -0.0302898 3.93756 0.430257 4.36647C0.630648 4.54928 0.83807 4.73912 0.89432 4.78483L0.992757 4.87272L0.883773 5.41412C0.824007 5.70944 0.774788 6.0153 0.774788 6.09264C0.774788 6.35631 0.947054 6.52506 1.21073 6.51803C1.34432 6.51452 1.70994 6.3317 2.30409 5.97311L2.41307 5.90983L2.9369 6.20866C3.22518 6.37038 3.51346 6.51452 3.57674 6.52506C3.74549 6.5567 3.94237 6.44772 4.02323 6.27545L4.09354 6.13483L3.96698 5.51959L3.84041 4.90436L4.32909 4.42975C4.81776 3.95866 4.81776 3.95514 4.81776 3.79694C4.81776 3.60358 4.72284 3.43834 4.58573 3.38209C4.52948 3.361 4.21659 3.31178 3.89315 3.27311C3.56619 3.23795 3.29901 3.19928 3.29198 3.19577C3.28846 3.18873 3.17596 2.94264 3.04588 2.65436C2.79276 2.09537 2.74705 2.02506 2.59588 1.94772C2.47635 1.88795 2.37088 1.88795 2.22674 1.95123ZM2.72244 3.95866C2.78573 4.01491 2.88065 4.04303 3.0494 4.06061C3.17948 4.07467 3.30252 4.09577 3.3201 4.10631C3.33768 4.11686 3.26385 4.20475 3.15487 4.30319C2.92284 4.51764 2.89471 4.60905 2.95096 4.936C2.97205 5.06959 2.98612 5.18209 2.97909 5.18912C2.97205 5.19616 2.86659 5.14694 2.74002 5.08014C2.61698 5.01334 2.47284 4.95709 2.4201 4.95709C2.37088 4.95709 2.22323 5.01334 2.09315 5.08366C1.96307 5.15045 1.85057 5.19967 1.84002 5.18912C1.83299 5.18209 1.84002 5.1153 1.86112 5.03795C1.88221 4.96412 1.89979 4.81647 1.89979 4.711C1.89979 4.52467 1.89627 4.51764 1.68885 4.31725C1.56932 4.19772 1.49549 4.10631 1.52362 4.09928C1.54471 4.08873 1.66073 4.07467 1.77674 4.06412C2.05096 4.036 2.13885 3.9692 2.28651 3.66686L2.40955 3.41725L2.51854 3.64928C2.58182 3.77936 2.66971 3.91647 2.72244 3.95866Z" fill="#292D32"/>
<path d="M13.2012 1.96178C13.05 2.0567 13.043 2.07077 12.7758 2.65436C12.6457 2.94264 12.5332 3.18873 12.5297 3.19577C12.5227 3.2028 12.252 3.23795 11.9285 3.27662C11.6051 3.31178 11.2922 3.361 11.2359 3.38209C11.0988 3.43834 11.0039 3.60358 11.0039 3.79694C11.0039 3.95514 11.0039 3.95866 11.4926 4.42975L11.9812 4.90436L11.8547 5.51959L11.7281 6.13483L11.7984 6.27545C11.8793 6.44772 12.0762 6.5567 12.2449 6.52506C12.3082 6.51452 12.5965 6.37038 12.8848 6.20866L13.4086 5.90983L13.5176 5.97311C14.1117 6.3317 14.4773 6.51452 14.6109 6.51803C14.8746 6.52506 15.0469 6.35631 15.0469 6.09264C15.0469 6.0153 14.9977 5.71295 14.9379 5.41412C14.8324 4.89381 14.8324 4.87623 14.8957 4.81647C15.7148 4.06764 15.75 4.02897 15.7887 3.90241C15.8379 3.73717 15.8133 3.62467 15.6973 3.48756C15.5918 3.361 15.5777 3.35748 14.8605 3.27311C14.5547 3.23444 14.298 3.19928 14.291 3.19225C14.284 3.18522 14.1609 2.92858 14.0203 2.62272C13.8551 2.26412 13.7285 2.03912 13.6723 1.99694C13.5387 1.89498 13.3277 1.88092 13.2012 1.96178ZM13.725 3.96569C13.7883 4.01491 13.8973 4.04655 14.0555 4.06061C14.1855 4.07467 14.3016 4.09225 14.3156 4.09928C14.3297 4.10983 14.2453 4.20475 14.1293 4.31725C13.9254 4.51764 13.9219 4.52467 13.9219 4.711C13.9219 4.81647 13.9395 4.96412 13.9605 5.03795C13.9816 5.1153 13.9922 5.18209 13.9816 5.18912C13.9746 5.19616 13.8621 5.14694 13.732 5.08014C13.602 5.01334 13.4508 4.95709 13.4016 4.95709C13.3488 4.95709 13.2047 5.01334 13.0816 5.08014C12.9551 5.14694 12.8496 5.19616 12.8426 5.18912C12.8355 5.18209 12.8496 5.06959 12.8707 4.936C12.927 4.60905 12.8988 4.51764 12.6633 4.29967C12.4418 4.09928 12.4418 4.09577 12.7793 4.06412C12.8953 4.05006 13.0289 4.01491 13.0781 3.97975C13.1273 3.94459 13.2187 3.80397 13.2855 3.66686L13.4051 3.41373L13.5176 3.6528C13.5809 3.78287 13.6758 3.9235 13.725 3.96569Z" fill="#292D32"/>
<path d="M7.76162 5.63906C7.58936 5.70234 7.54014 5.74805 7.43467 5.92734C7.3749 6.02578 7.32217 6.21563 7.27647 6.47578C7.13584 7.2668 6.96006 7.81172 6.62959 8.47266C6.22178 9.28477 5.60654 10.0617 4.91397 10.6453L4.78037 10.7578L4.696 10.6559C4.64678 10.5996 4.53779 10.5223 4.4499 10.4801C4.29522 10.4098 4.24951 10.4063 2.61475 10.4063C1.05732 10.4063 0.92373 10.4133 0.790137 10.473C0.617871 10.5539 0.413965 10.7824 0.36123 10.9652C0.301465 11.1586 0.301465 17.2477 0.36123 17.441C0.413965 17.6238 0.617871 17.8523 0.790137 17.9332C0.92373 17.993 1.05732 18 2.62178 18H4.30928L4.49209 17.8945C4.59756 17.8348 4.71709 17.7258 4.76982 17.6484L4.86475 17.5078L4.97373 17.5781C5.15303 17.6977 5.49404 17.8664 5.69443 17.9332C5.87373 17.9965 6.06006 18 9.28037 18C11.3792 18 12.7222 17.9859 12.7995 17.9648C13.1546 17.8664 13.5132 17.5254 13.6292 17.1809C13.7065 16.9453 13.6995 16.548 13.6151 16.323L13.5448 16.1402L13.6433 16.0488C13.6995 15.9961 13.7944 15.8555 13.8577 15.7359C13.9562 15.5531 13.9772 15.4758 13.9878 15.2191C14.0019 14.9625 13.9913 14.8887 13.9175 14.7094L13.8331 14.4984L13.9667 14.3227C14.2585 13.9465 14.3147 13.4191 14.1073 12.9973C14.0054 12.7969 14.0054 12.7934 14.0722 12.709C14.4237 12.2625 14.4026 11.5594 14.0265 11.1305C13.9456 11.0391 13.812 10.9266 13.7241 10.8738C13.4183 10.6945 13.3269 10.6875 11.1683 10.6875C9.28037 10.6875 9.17139 10.684 9.196 10.6242C9.36826 10.1848 9.61436 9.07031 9.67061 8.47266C9.76553 7.46016 9.52998 6.60586 9.02373 6.10313C8.61592 5.70234 8.10264 5.5125 7.76162 5.63906ZM8.4999 6.84844C8.83389 7.28789 8.90068 8.08242 8.68272 9.13359C8.59834 9.54492 8.37686 10.3184 8.2292 10.7191C8.09209 11.0988 8.08857 11.2816 8.22568 11.4328L8.32764 11.5488L10.778 11.5664L13.2284 11.584L13.3304 11.7C13.4991 11.8898 13.4534 12.1535 13.2319 12.266C13.1792 12.2906 12.7433 12.3047 11.8503 12.3047C10.4405 12.3047 10.3772 12.3117 10.2577 12.491C10.1804 12.607 10.1804 12.8953 10.2542 13.0008C10.3772 13.1801 10.4159 13.1836 11.78 13.1836C13.1792 13.1836 13.2003 13.1871 13.3128 13.4016C13.3937 13.5563 13.3304 13.7566 13.1757 13.8516C13.0702 13.9184 12.9929 13.9219 11.9276 13.9219H10.7956L10.669 14.0379C10.43 14.2559 10.4897 14.6285 10.778 14.7516C10.8729 14.7902 11.105 14.8008 11.889 14.8008H12.8769L12.9964 14.9203C13.1335 15.0574 13.1546 15.2191 13.0597 15.3598C12.9472 15.5215 12.8276 15.5391 11.9171 15.5391H11.0698L10.9503 15.6586C10.8448 15.7641 10.8308 15.7992 10.8308 15.9539C10.8308 16.1719 10.9433 16.3266 11.1401 16.3828C11.2104 16.4004 11.569 16.418 11.9312 16.418H12.5956L12.6976 16.5199C12.8417 16.6641 12.8417 16.875 12.7011 17.0156L12.5991 17.1141L9.82529 17.1281C8.29951 17.1352 6.80537 17.1316 6.50654 17.1211C5.97568 17.1035 5.95107 17.1 5.72607 16.9875C5.4624 16.8574 5.18115 16.6219 5.02998 16.3969L4.92451 16.2457V14.0027V11.7598L5.23389 11.5242C6.72451 10.3852 7.74756 8.72578 8.10615 6.8625L8.16943 6.53906L8.27842 6.61992C8.33818 6.66563 8.43662 6.77109 8.4999 6.84844ZM4.04561 14.2031V17.1563H2.62178H1.19795V14.2031V11.25H2.62178H4.04561V14.2031Z" fill="#292D32"/>
<path d="M1.575 11.5944C1.46953 11.6577 1.37109 11.83 1.37109 11.9495C1.37109 12.0761 1.4625 12.2518 1.56094 12.3186C1.69102 12.403 2.08477 12.4311 2.26758 12.3679C2.61211 12.2518 2.67188 11.7491 2.35547 11.5839C2.20781 11.5065 1.70156 11.5136 1.575 11.5944Z" fill="#292D32"/>
</svg>
