<svg width="24" height="24" viewBox="0 0 24 24" fill="none" xmlns="http://www.w3.org/2000/svg">
<path d="M10.3661 3.4499C10.3567 3.68524 10.3566 4.13001 10.3566 5.02103V6.85731V7.30731H9.90658H9.2476C9.11747 7.30731 8.99175 7.30943 8.88291 7.31315C8.95393 7.39404 9.03847 7.48961 9.13361 7.59662C9.42753 7.92718 9.81885 8.3626 10.2161 8.80147C10.6133 9.24036 11.0157 9.68174 11.3316 10.0243C11.4896 10.1957 11.6252 10.3414 11.7273 10.4493C11.7622 10.4862 11.7927 10.5181 11.8185 10.5448C11.8428 10.5216 11.8731 10.4919 11.9107 10.454C12.1665 10.1954 12.6454 9.67274 13.6213 8.6075C13.6822 8.54102 13.7451 8.47243 13.8099 8.40166L13.8102 8.40133C14.3269 7.83848 14.6228 7.51177 14.7915 7.31218C14.6954 7.30863 14.5763 7.30731 14.427 7.30731H13.764H13.314V6.85731V5.03308C13.314 4.13604 13.3139 3.69379 13.3039 3.45962C13.3037 3.45631 13.3036 3.45307 13.3034 3.4499H11.8393H10.3661ZM8.59239 7.33222C8.58882 7.33284 8.5896 7.33285 8.5937 7.332L8.59239 7.33222Z" stroke="#292D32" stroke-width="0.9"/>
<path d="M16.5188 14.9254L16.5187 14.9253C16.7704 14.684 16.8248 14.2669 16.597 13.9696C16.4698 13.8026 16.2983 13.7222 16.1219 13.6833C15.9643 13.6485 15.7726 13.6402 15.5536 13.6401C15.5074 13.4227 15.3908 13.1978 15.1245 13.0802M16.5188 14.9254L14.9416 13.4914M16.5188 14.9254L16.51 14.9333L16.5188 14.9254ZM15.1245 13.0802C15.1236 13.0798 15.1228 13.0795 15.122 13.0791L14.9416 13.4914M15.1245 13.0802C15.1249 13.0804 15.1253 13.0806 15.1257 13.0807L14.9416 13.4914M15.1245 13.0802C15.1223 13.0792 15.1197 13.078 15.1169 13.0767C15.0725 13.0563 14.9513 13.0005 14.8118 13.0027C14.6591 13.0052 14.5379 13.0746 14.496 13.0986C14.494 13.0997 14.4921 13.1008 14.4904 13.1018M14.9416 13.4914C14.8251 13.4391 14.809 13.4391 14.7085 13.4954M14.4904 13.1018C14.4916 13.1011 14.4927 13.1005 14.4938 13.0999L14.7085 13.4954M14.4904 13.1018C14.3674 13.1691 14.2355 13.2729 14.1552 13.4511C14.114 13.5424 14.0944 13.6372 14.0853 13.7263M14.4904 13.1018C14.4898 13.1021 14.4892 13.1024 14.4887 13.1027L14.7085 13.4954M14.7085 13.4954C14.5679 13.5717 14.5277 13.6601 14.5277 13.8972C14.5277 14.1262 14.5277 14.1302 14.4152 14.1302C14.0656 14.1302 13.6759 14.3995 13.4951 14.7651L14.0853 13.7263M14.0853 13.7263C13.6599 13.8445 13.284 14.1767 13.0917 14.5656L13.0909 14.5673L13.0909 14.5673C13.0378 14.6758 12.9917 14.7841 12.964 14.914C12.9373 15.0393 12.9326 15.163 12.9326 15.2955C12.9326 15.5179 12.9619 15.7299 13.0446 15.9332C13.1279 16.1381 13.2544 16.307 13.4111 16.4586C13.5814 16.6235 13.7701 16.7457 14.0116 16.82C14.2398 16.8903 14.4932 16.9108 14.7809 16.9108C15.0397 16.9108 15.1396 16.9264 15.184 16.9414C15.1878 16.9427 15.1904 16.9437 15.1919 16.9444L15.1937 16.9452C15.1947 16.9461 15.1971 16.9484 15.2009 16.9529C15.2062 16.9593 15.2142 16.9696 15.2251 16.9861L15.2261 16.9876C15.2326 16.9973 15.245 17.0286 15.2363 17.0774C15.2311 17.1069 15.2206 17.129 15.21 17.1442C15.2018 17.1452 15.1918 17.1463 15.1797 17.1475C15.0611 17.1591 14.8503 17.1659 14.4249 17.1761C14.4248 17.1761 14.4246 17.1761 14.4245 17.1762L14.0853 13.7263ZM14.4617 15.1775C14.4738 15.1758 14.4912 15.1739 14.515 15.1719C14.6366 15.1619 14.8438 15.1569 15.2376 15.1508C15.2377 15.1508 15.2378 15.1508 15.2379 15.1508L14.4617 15.1775ZM14.4617 15.1775C14.4258 15.2134 14.399 15.2811 14.4334 15.3746C14.4538 15.3788 14.4837 15.3839 14.5264 15.3888C14.6084 15.3983 14.7172 15.4055 14.8683 15.4125C15.1738 15.4246 15.4249 15.4453 15.644 15.513C15.8851 15.5875 16.0576 15.7086 16.2271 15.8611L16.2271 15.8611L16.2296 15.8634C16.5701 16.1745 16.7262 16.5886 16.7216 17.0659M16.7216 17.0659C16.7216 17.0651 16.7216 17.0643 16.7216 17.0635H16.2716L16.7216 17.0684C16.7216 17.0675 16.7216 17.0667 16.7216 17.0659ZM11.8463 12.9351L11.846 12.9354C11.5133 13.2397 11.077 13.8349 10.8713 14.2642C10.2506 15.5639 10.3242 17.1621 11.0788 18.4515L11.0789 18.4517C11.6761 19.4734 12.8102 20.2599 14.0519 20.4987C14.2015 20.5257 14.4747 20.5454 14.7707 20.5493C15.0682 20.5532 15.3409 20.5406 15.4884 20.5169C16.8663 20.2919 18.1209 19.3543 18.7742 18.0476L18.7744 18.0472C19.5052 16.5893 19.3311 14.8549 18.2909 13.4728C17.6481 12.6206 16.7108 12.0559 15.5881 11.8614L15.5862 11.8611C15.4101 11.8298 15.1186 11.8118 14.8069 11.8127C14.4958 11.8137 14.2046 11.8335 14.0291 11.8648C13.1852 12.0191 12.4561 12.3761 11.8463 12.9351ZM15.1304 13.9092V14.0901H15.5483L15.1304 13.9092Z" stroke="#292D32" stroke-width="0.9"/>
<path d="M4.31104 13.6079L4.6417 13.9131C4.51941 14.0456 4.4834 14.1208 4.47453 14.1494C4.43125 14.3085 4.45575 14.4418 4.5509 14.5786C4.65847 14.7333 4.86965 14.9073 5.22484 15.0722C5.93497 15.402 7.07773 15.6301 8.58007 15.6775C8.58019 15.6775 8.58031 15.6775 8.58043 15.6775L8.95872 15.6888C9.04695 14.7242 9.36868 13.8085 9.91723 12.9538C9.31679 12.9117 8.40993 12.8986 7.98625 12.9315L7.98396 12.9316C7.11978 12.9942 6.38072 13.1244 5.80164 13.3035C5.21173 13.4859 4.834 13.7051 4.64144 13.9134L4.31104 13.6079ZM4.31104 13.6079C4.85348 13.0212 6.17545 12.6114 7.95147 12.4828L8.56624 16.1273C5.50844 16.0308 3.71635 15.1991 4.04182 14.0258C4.07798 13.9012 4.16638 13.7646 4.31104 13.6079Z" stroke="#292D32" stroke-width="0.9"/>
<path d="M4.67838 16.5966L4.67838 16.5966L4.67934 16.5975C5.00347 16.8833 5.58238 17.1419 6.39064 17.318C7.15526 17.4846 8.0841 17.5684 9.10526 17.549C9.07688 17.4266 9.0502 17.2981 9.03119 17.1932L8.57166 17.1799L8.5707 17.1798C7.65244 17.1513 7.17901 17.1097 6.4639 16.9801C5.71443 16.8467 5.04267 16.6442 4.50221 16.3765C4.52688 16.4377 4.56918 16.5009 4.67838 16.5966Z" stroke="#292D32" stroke-width="0.9"/>
<path d="M7.39062 19.3572L7.39116 19.3573C7.73867 19.4009 8.52225 19.4141 9.25562 19.4001C9.4899 19.3956 9.7138 19.3884 9.91047 19.379C9.844 19.2784 9.78 19.1782 9.73053 19.0964L9.73043 19.0964L9.7255 19.0878L9.69113 19.0281C9.46709 19.0435 9.09183 19.0464 8.73291 19.0433C8.27694 19.0393 7.77496 19.0242 7.49522 18.9983C6.30554 18.8901 5.28728 18.6386 4.49012 18.2342C4.4917 18.2379 4.49337 18.2418 4.49514 18.2458C4.56843 18.4075 4.811 18.6385 5.33945 18.8619C5.8482 19.0769 6.54519 19.252 7.39062 19.3572Z" stroke="#292D32" stroke-width="0.9"/>
</svg>
