<svg width="20" height="18" viewBox="0 0 20 18" fill="none" xmlns="http://www.w3.org/2000/svg">
<path d="M10.0008 11.7C11.492 11.7 12.7008 10.4912 12.7008 9.00005C12.7008 7.50888 11.492 6.30005 10.0008 6.30005C8.50961 6.30005 7.30078 7.50888 7.30078 9.00005C7.30078 10.4912 8.50961 11.7 10.0008 11.7Z" stroke="#292D32" stroke-width="1.1" stroke-miterlimit="10" stroke-linecap="round" stroke-linejoin="round"/>
<path d="M1 9.7552V8.24485C1 7.35238 1.76462 6.61437 2.70915 6.61437C4.33733 6.61437 5.003 5.51593 4.18441 4.16864C3.71664 3.3963 3.9955 2.39226 4.81409 1.94603L6.37031 1.09646C7.08096 0.693125 7.9985 0.933408 8.42129 1.61135L8.52024 1.7744C9.32983 3.12169 10.6612 3.12169 11.4798 1.7744L11.5787 1.61135C12.0015 0.933408 12.919 0.693125 13.6297 1.09646L15.1859 1.94603C16.0045 2.39226 16.2834 3.3963 15.8156 4.16864C14.997 5.51593 15.6627 6.61437 17.2909 6.61437C18.2264 6.61437 19 7.34379 19 8.24485V9.7552C19 10.6477 18.2354 11.3857 17.2909 11.3857C15.6627 11.3857 14.997 12.4841 15.8156 13.8314C16.2834 14.6123 16.0045 15.6078 15.1859 16.054L13.6297 16.9036C12.919 17.3069 12.0015 17.0666 11.5787 16.3887L11.4798 16.2257C10.6702 14.8784 9.33883 14.8784 8.52024 16.2257L8.42129 16.3887C7.9985 17.0666 7.08096 17.3069 6.37031 16.9036L4.81409 16.054C3.9955 15.6078 3.71664 14.6037 4.18441 13.8314C5.003 12.4841 4.33733 11.3857 2.70915 11.3857C1.76462 11.3857 1 10.6477 1 9.7552Z" stroke="#292D32" stroke-width="1.1" stroke-miterlimit="10" stroke-linecap="round" stroke-linejoin="round"/>
</svg>
